name C:\Users\u0101727\Documents\MyRepositories\upper-imu-dc\OpenSim\subject0\MA\MA_Splines\angle_in_n6_dof6_0.mot
datacolumns 7
datarows 47
range 25.01000000 25.47000000
endheader 
time	clav_prot	clav_elev	scapula_abduction	scapula_elevation	scapula_upward_rot	scapula_winging	
         25.01000000	        -22.39390379	          2.15399008	         -5.58217594	          7.08700750	         23.68359952	        -12.40251587	
         25.02000000	        -16.90593547	          2.15399008	         -5.58217594	          7.08700750	         23.68359952	        -12.40251587	
         25.03000000	        -44.34577705	          7.05722688	         -5.58217594	          7.08700750	         23.68359952	        -12.40251587	
         25.04000000	        -38.85780873	          7.05722688	         -5.58217594	          7.08700750	         23.68359952	        -12.40251587	
         25.05000000	        -33.36984042	          7.05722688	         -5.58217594	          7.08700750	         23.68359952	        -12.40251587	
         25.06000000	        -27.88187210	          7.05722688	         -5.58217594	          7.08700750	         23.68359952	        -12.40251587	
         25.07000000	        -22.39390379	          7.05722688	         -5.58217594	          7.08700750	         23.68359952	        -12.40251587	
         25.08000000	        -16.90593547	          7.05722688	         -5.58217594	          7.08700750	         23.68359952	        -12.40251587	
         25.09000000	        -44.34577705	         11.96046367	         -5.58217594	          7.08700750	         23.68359952	        -12.40251587	
         25.10000000	        -38.85780873	         11.96046367	         -5.58217594	          7.08700750	         23.68359952	        -12.40251587	
         25.11000000	        -33.36984042	         11.96046367	         -5.58217594	          7.08700750	         23.68359952	        -12.40251587	
         25.12000000	        -27.88187210	         11.96046367	         -5.58217594	          7.08700750	         23.68359952	        -12.40251587	
         25.13000000	        -22.39390379	         11.96046367	         -5.58217594	          7.08700750	         23.68359952	        -12.40251587	
         25.14000000	        -16.90593547	         11.96046367	         -5.58217594	          7.08700750	         23.68359952	        -12.40251587	
         25.15000000	        -44.34577705	         16.86370047	         -5.58217594	          7.08700750	         23.68359952	        -12.40251587	
         25.16000000	        -38.85780873	         16.86370047	         -5.58217594	          7.08700750	         23.68359952	        -12.40251587	
         25.17000000	        -33.36984042	         16.86370047	         -5.58217594	          7.08700750	         23.68359952	        -12.40251587	
         25.18000000	        -27.88187210	         16.86370047	         -5.58217594	          7.08700750	         23.68359952	        -12.40251587	
         25.19000000	        -22.39390379	         16.86370047	         -5.58217594	          7.08700750	         23.68359952	        -12.40251587	
         25.20000000	        -16.90593547	         16.86370047	         -5.58217594	          7.08700750	         23.68359952	        -12.40251587	
         25.21000000	        -44.34577705	         -7.65248351	          2.85286645	          7.08700750	         23.68359952	        -12.40251587	
         25.22000000	        -38.85780873	         -7.65248351	          2.85286645	          7.08700750	         23.68359952	        -12.40251587	
         25.23000000	        -33.36984042	         -7.65248351	          2.85286645	          7.08700750	         23.68359952	        -12.40251587	
         25.24000000	        -27.88187210	         -7.65248351	          2.85286645	          7.08700750	         23.68359952	        -12.40251587	
         25.25000000	        -22.39390379	         -7.65248351	          2.85286645	          7.08700750	         23.68359952	        -12.40251587	
         25.26000000	        -16.90593547	         -7.65248351	          2.85286645	          7.08700750	         23.68359952	        -12.40251587	
         25.27000000	        -44.34577705	         -2.74924671	          2.85286645	          7.08700750	         23.68359952	        -12.40251587	
         25.28000000	        -38.85780873	         -2.74924671	          2.85286645	          7.08700750	         23.68359952	        -12.40251587	
         25.29000000	        -33.36984042	         -2.74924671	          2.85286645	          7.08700750	         23.68359952	        -12.40251587	
         25.30000000	        -27.88187210	         -2.74924671	          2.85286645	          7.08700750	         23.68359952	        -12.40251587	
         25.31000000	        -22.39390379	         -2.74924671	          2.85286645	          7.08700750	         23.68359952	        -12.40251587	
         25.32000000	        -16.90593547	         -2.74924671	          2.85286645	          7.08700750	         23.68359952	        -12.40251587	
         25.33000000	        -44.34577705	          2.15399008	          2.85286645	          7.08700750	         23.68359952	        -12.40251587	
         25.34000000	        -38.85780873	          2.15399008	          2.85286645	          7.08700750	         23.68359952	        -12.40251587	
         25.35000000	        -33.36984042	          2.15399008	          2.85286645	          7.08700750	         23.68359952	        -12.40251587	
         25.36000000	        -27.88187210	          2.15399008	          2.85286645	          7.08700750	         23.68359952	        -12.40251587	
         25.37000000	        -22.39390379	          2.15399008	          2.85286645	          7.08700750	         23.68359952	        -12.40251587	
         25.38000000	        -16.90593547	          2.15399008	          2.85286645	          7.08700750	         23.68359952	        -12.40251587	
         25.39000000	        -44.34577705	          7.05722688	          2.85286645	          7.08700750	         23.68359952	        -12.40251587	
         25.40000000	        -38.85780873	          7.05722688	          2.85286645	          7.08700750	         23.68359952	        -12.40251587	
         25.41000000	        -33.36984042	          7.05722688	          2.85286645	          7.08700750	         23.68359952	        -12.40251587	
         25.42000000	        -27.88187210	          7.05722688	          2.85286645	          7.08700750	         23.68359952	        -12.40251587	
         25.43000000	        -22.39390379	          7.05722688	          2.85286645	          7.08700750	         23.68359952	        -12.40251587	
         25.44000000	        -16.90593547	          7.05722688	          2.85286645	          7.08700750	         23.68359952	        -12.40251587	
         25.45000000	        -44.34577705	         11.96046367	          2.85286645	          7.08700750	         23.68359952	        -12.40251587	
         25.46000000	        -38.85780873	         11.96046367	          2.85286645	          7.08700750	         23.68359952	        -12.40251587	
         25.47000000	        -33.36984042	         11.96046367	          2.85286645	          7.08700750	         23.68359952	        -12.40251587	
